grf
version=1
nRows=14
nColumns=37
inDegrees=no
endheader
time	ground_force_1_vx	ground_force_1_vy	ground_force_1_vz	ground_force_1_px	ground_force_1_py	ground_force_1_pz	ground_moment_1_mx	ground_moment_1_my	ground_moment_1_mz	ground_force_2_vx	ground_force_2_vy	ground_force_2_vz	ground_force_2_px	ground_force_2_py	ground_force_2_pz	ground_moment_2_mx	ground_moment_2_my	ground_moment_2_mz	ground_force_3_vx	ground_force_3_vy	ground_force_3_vz	ground_force_3_px	ground_force_3_py	ground_force_3_pz	ground_moment_3_mx	ground_moment_3_my	ground_moment_3_mz	ground_force_4_vx	ground_force_4_vy	ground_force_4_vz	ground_force_4_px	ground_force_4_py	ground_force_4_pz	ground_moment_4_mx	ground_moment_4_my	ground_moment_4_mz
      0.00000000	      0.00000000	     -0.00000000	      0.00000000	      0.00000000	      0.00000000	      0.00000000	      0.00000000	      0.00000000	      0.00000000	      1.04120469	     29.23706627	   -343.19338989	   -399.10834278	  -1098.92968124	      0.00000000	      0.00000000	      0.00000000	   2892.01607260	      1.69480978	    -39.68078628	   -412.89492798	   -388.15112834	   -706.43601424	      0.00000000	     -0.00000000	     -0.00000000	  -2748.59227739	      0.00000000	     -0.00000000	      0.00000000	      0.00000000	      0.00000000	      0.00000000	      0.00000000	      0.00000000	      0.00000000
      0.01000000	      0.00000000	     -0.00000000	      0.00000000	      0.00000000	      0.00000000	      0.00000000	      0.00000000	      0.00000000	      0.00000000	      1.20675182	     29.43800545	   -344.96859741	   -399.14758892	  -1099.03297579	      0.00000000	      0.00000000	      0.00000000	   2837.48084278	      1.44927362	    -39.21361554	   -411.52026367	   -388.22998621	   -706.27158432	      0.00000000	      0.00000000	     -0.00000000	  -2698.73978500	      0.00000000	     -0.00000000	      0.00000000	      0.00000000	      0.00000000	      0.00000000	      0.00000000	      0.00000000	      0.00000000
      0.02000000	      0.00000000	     -0.00000000	      0.00000000	      0.00000000	      0.00000000	      0.00000000	      0.00000000	      0.00000000	      0.00000000	      1.00843287	     29.36888313	   -347.34057617	   -399.37608798	  -1100.01819700	      0.00000000	      0.00000000	      0.00000000	   2801.38130499	      1.32655993	    -39.22285092	   -410.36654663	   -387.63429979	   -706.14711690	      0.00000000	      0.00000000	     -0.00000000	  -2692.70098129	      0.00000000	     -0.00000000	      0.00000000	      0.00000000	      0.00000000	      0.00000000	      0.00000000	      0.00000000	      0.00000000
      0.03000000	      0.00000000	     -0.00000000	      0.00000000	      0.00000000	      0.00000000	      0.00000000	      0.00000000	      0.00000000	      0.00000000	      1.11095393	     29.41444016	   -349.55410767	   -399.08083619	  -1099.98300002	      0.00000000	      0.00000000	      0.00000000	   2802.95912019	      1.41936914	    -39.08225263	   -407.76168823	   -388.27837786	   -706.40199639	      0.00000000	      0.00000000	     -0.00000000	  -2773.45075514	      0.00000000	     -0.00000000	      0.00000000	      0.00000000	      0.00000000	      0.00000000	      0.00000000	      0.00000000	      0.00000000
      0.04000000	      0.00000000	     -0.00000000	      0.00000000	      0.00000000	      0.00000000	      0.00000000	      0.00000000	      0.00000000	      0.00000000	      1.34766388	     29.67246437	   -350.70758057	   -399.29683381	  -1100.15763107	      0.00000000	      0.00000000	      0.00000000	   2819.22394852	      1.36810381	    -38.71763241	   -406.70739746	   -387.78123741	   -705.37598336	      0.00000000	      0.00000000	     -0.00000000	  -2800.99424139	      0.00000000	     -0.00000000	      0.00000000	      0.00000000	      0.00000000	      0.00000000	      0.00000000	      0.00000000	      0.00000000
      0.05000000	      0.00000000	     -0.00000000	      0.00000000	      0.00000000	      0.00000000	      0.00000000	      0.00000000	      0.00000000	      0.00000000	      1.41198134	     30.13359070	   -352.85046387	   -399.51346162	  -1099.92522291	      0.00000000	      0.00000000	      0.00000000	   2980.84390985	      1.42259084	    -38.33929456	   -403.23504639	   -388.02331909	   -706.18463182	      0.00000000	      0.00000000	     -0.00000000	  -2813.65270256	      0.00000000	     -0.00000000	      0.00000000	      0.00000000	      0.00000000	      0.00000000	      0.00000000	      0.00000000	      0.00000000
      0.06000000	      0.00000000	     -0.00000000	      0.00000000	      0.00000000	      0.00000000	      0.00000000	      0.00000000	      0.00000000	      0.00000000	      1.38085699	     29.97215843	   -354.72280884	   -399.13041800	  -1099.44539447	      0.00000000	      0.00000000	      0.00000000	   2641.33561172	      1.11752916	    -38.10575876	   -401.93344116	   -387.91720426	   -705.42556185	      0.00000000	      0.00000000	     -0.00000000	  -2748.84075955	      0.00000000	     -0.00000000	      0.00000000	      0.00000000	      0.00000000	      0.00000000	      0.00000000	      0.00000000	      0.00000000
      0.07000000	      0.00000000	     -0.00000000	      0.00000000	      0.00000000	      0.00000000	      0.00000000	      0.00000000	      0.00000000	      0.00000000	      1.64685953	     30.57354355	   -357.14724731	   -400.17315456	  -1099.36475260	      0.00000000	      0.00000000	      0.00000000	   2903.77410330	      1.36005380	    -37.86838162	   -398.57608032	   -388.37681354	   -706.34375506	      0.00000000	      0.00000000	     -0.00000000	  -2846.13587910	      0.00000000	     -0.00000000	      0.00000000	      0.00000000	      0.00000000	      0.00000000	      0.00000000	      0.00000000	      0.00000000
      0.08000000	      0.00000000	     -0.00000000	      0.00000000	      0.00000000	      0.00000000	      0.00000000	      0.00000000	      0.00000000	      0.00000000	      1.83746088	     31.01423645	   -361.05078125	   -400.33413755	  -1099.26496013	      0.00000000	      0.00000000	      0.00000000	   2874.59221119	      1.21488135	    -37.66364680	   -395.38024902	   -388.47435569	   -706.83318939	      0.00000000	      0.00000000	     -0.00000000	  -2909.13034846	      0.00000000	     -0.00000000	      0.00000000	      0.00000000	      0.00000000	      0.00000000	      0.00000000	      0.00000000	      0.00000000
      0.09000000	      0.00000000	     -0.00000000	      0.00000000	      0.00000000	      0.00000000	      0.00000000	      0.00000000	      0.00000000	      0.00000000	      1.66194868	     31.41846657	   -363.94824219	   -400.42137688	  -1099.90561684	      0.00000000	      0.00000000	      0.00000000	   2791.11821361	      1.16588232	    -37.13254176	   -393.56674194	   -387.98903946	   -705.88204059	      0.00000000	      0.00000000	     -0.00000000	  -3016.76721930	      0.00000000	     -0.00000000	      0.00000000	      0.00000000	      0.00000000	      0.00000000	      0.00000000	      0.00000000	      0.00000000
      0.10000000	      0.00000000	     -0.00000000	      0.00000000	      0.00000000	      0.00000000	      0.00000000	      0.00000000	      0.00000000	      0.00000000	      1.79029274	     31.99720383	   -367.38482666	   -400.33304908	  -1100.37504762	      0.00000000	      0.00000000	      0.00000000	   2885.79537296	      0.72315669	    -36.87996680	   -389.08691406	   -388.34770143	   -706.73468513	      0.00000000	      0.00000000	     -0.00000000	  -2878.12373990	      0.00000000	     -0.00000000	      0.00000000	      0.00000000	      0.00000000	      0.00000000	      0.00000000	      0.00000000	      0.00000000
      0.11000000	      0.00000000	     -0.00000000	      0.00000000	      0.00000000	      0.00000000	      0.00000000	      0.00000000	      0.00000000	      0.00000000	      1.90492129	     32.55298615	   -370.47741699	   -400.80021457	  -1099.86705189	      0.00000000	      0.00000000	      0.00000000	   2926.01468675	      0.61653333	    -36.23833852	   -386.12716675	   -387.70842672	   -706.39267385	      0.00000000	      0.00000000	     -0.00000000	  -2952.21580859	      0.00000000	     -0.00000000	      0.00000000	      0.00000000	      0.00000000	      0.00000000	      0.00000000	      0.00000000	      0.00000000
      0.12000000	      0.00000000	     -0.00000000	      0.00000000	      0.00000000	      0.00000000	      0.00000000	      0.00000000	      0.00000000	      0.00000000	      2.10310483	     33.55305481	   -373.17047119	   -401.03004551	  -1100.17070571	      0.00000000	      0.00000000	      0.00000000	   2951.36614169	      0.28830693	    -35.75469973	   -383.30731201	   -387.53759844	   -706.29230839	      0.00000000	      0.00000000	     -0.00000000	  -2938.29590041	      0.00000000	     -0.00000000	      0.00000000	      0.00000000	      0.00000000	      0.00000000	      0.00000000	      0.00000000	      0.00000000
      0.13000000	      0.00000000	     -0.00000000	      0.00000000	      0.00000000	      0.00000000	      0.00000000	      0.00000000	      0.00000000	      0.00000000	      1.71906412	     33.95169830	   -377.32754517	   -400.86806879	  -1100.58576783	      0.00000000	      0.00000000	      0.00000000	   2830.27502377	      0.43427781	    -35.33100132	   -379.99026489	   -387.90817504	   -706.84925338	      0.00000000	     -0.00000000	     -0.00000000	  -3060.73672522	      0.00000000	     -0.00000000	      0.00000000	      0.00000000	      0.00000000	      0.00000000	      0.00000000	      0.00000000	      0.00000000
